<svg xmlns="http://www.w3.org/2000/svg" width="232.979" height="80.19" viewBox="0 0 232.979 80.19"><g transform="translate(-55.1 -13)"><g transform="translate(-124 -155.832)"><g transform="translate(179.1 168.832)"><path d="M266.324,198.881a7.421,7.421,0,0,0,4.89.142c3.365-1.237,4.87-5.585,4.5-8.856a20.237,20.237,0,0,0-3.3-8.494,24.285,24.285,0,0,1-2.625-5.854c-.28-.877-.231-1.827-.454-2.732a8.719,8.719,0,0,0-1.448-3.218,3.385,3.385,0,0,0-.915-.862,2.141,2.141,0,0,1-.384-.176c2.648,5.03-.925,10.591-.925,10.591-3.436,6.617,2.382,14.031,2.382,14.031-4.516.178-5.559-8.207-5.559-8.207-3.971,12.045,3.839,13.634,3.839,13.634" transform="translate(-172.705 -168.832)" fill="#fe0607"/><path d="M216.961,227.812a9.157,9.157,0,0,0-1.81-5.113,14.626,14.626,0,0,0-5.451-4.32,16.6,16.6,0,0,0-3.18-1.234l-11.515-2.913c-8.868-2.118-7.679-6.617-7.679-6.617.926-5.689,7.017-6.216,7.017-6.216a13.7,13.7,0,0,1,9.434,2.271,26.36,26.36,0,0,1,6.215,5.688c.387.475.761.962,1.118,1.46a5.138,5.138,0,0,0,1.563,1.689c.282.169.718.4,1,.114.426-.435.169-1.289.04-1.792a11.654,11.654,0,0,0-.682-1.891q-1.529-3.312-3.054-6.628-1.065-2.312-2.13-4.622c-.186-.452-.658-1.624-1.335-1.189-.382.247-.486.753-.66,1.147a3.184,3.184,0,0,1-.7,1,3.434,3.434,0,0,1-1.917.918c-1.572.225-2.8-.488-4.254-.9a9.4,9.4,0,0,0-1.067-.228,16.154,16.154,0,0,0-8.06,1.108c-11.387,4.5-10.459,14.56-10.459,14.56a11.791,11.791,0,0,0,3.84,7.543c4.1,3.837,18.522,6.088,18.522,6.088,2.776.545,5.666,1.925,6.693,4.75a4.713,4.713,0,0,1,.311,2.748,8,8,0,0,1-.864,2.109,7.6,7.6,0,0,1-2.674,2.739,11.478,11.478,0,0,1-6.924,1.22,22.574,22.574,0,0,1-5.284-1.149c-.218-.075-.432-.164-.651-.237-3.317-1.133-6.083-3.636-8.369-6.215-.793-.895-1.466-1.885-2.2-2.823-.473-.6-1.059-1.439-1.95-1.344-.772.083-.769,1.046-.712,1.627a7.157,7.157,0,0,0,1.007,2.573l3.393,6.854q1.046,2.11,2.089,4.223c.33.621,1.278,2.538,2.288,1.969.567-.321.495-1.074.933-1.489a5.6,5.6,0,0,1,2.229-1.161,4.934,4.934,0,0,1,2.485-.114c3.474.98,7.349.495,10.822-.263a16.837,16.837,0,0,0,9.165-5.72,14.936,14.936,0,0,0,3.038-6.164,15.331,15.331,0,0,0,.391-4.052" transform="translate(-179.099 -166.689)" fill="#105caa"/><path d="M242.558,214.854a1.771,1.771,0,0,0-.2-1.071c-.544-.652-1.566,1.066-1.741,1.388a6.627,6.627,0,0,1-2.194,2.259,11.757,11.757,0,0,1-6.455,1.658s-1.514.234-1.446-1.853c.077-2.379-.138-11.512-.138-11.512s-.267-4.1,6.879-4.1c0,0,9.39-.8,9.39,8.337,0,0,.262,3.707-2.246,5.826,0,0-1.845,1.919-1.853-.928M246.1,241.82s.424,1.455,2.883,1.372h33.274c2.962-.029,2.768-1.487,2.768-1.487-.008-1.291-2.054-1.663-3.037-1.691a6.547,6.547,0,0,1-3.835-1.2,4.15,4.15,0,0,1-1.462-3.537V206.616a4.15,4.15,0,0,1,1.462-3.536,6.547,6.547,0,0,1,3.835-1.2c.983-.028,3.029-.4,3.037-1.691,0,0,.194-1.458-2.768-1.487H261.6c-2.959.029-2.768,1.487-2.768,1.487.008,1.291,2.054,1.663,3.036,1.691a6.548,6.548,0,0,1,3.837,1.2,4.153,4.153,0,0,1,1.462,3.536v28.664a4.153,4.153,0,0,1-1.462,3.537,6.093,6.093,0,0,1-3.988,1.191,11.024,11.024,0,0,1-5.837-2.047,9.023,9.023,0,0,1-2.387-2.552l-3.037-4.771q-1.977-3.106-3.953-6.21l-1.964-3.09c12.434,0,11.907-12.045,11.907-12.045,0-12.306-16.532-10.585-16.532-10.585H215.776s-3.1-.168-3.179,1.193c0,0-.732,1.9,3.179,1.717,0,0,5.16,0,5.16,4.1l.055,29.542a4.148,4.148,0,0,1-1.46,3.536,6.55,6.55,0,0,1-3.837,1.2c-.983.027-3.028.4-3.036,1.69,0,0-.192,1.458,2.767,1.488h20.792c2.959-.03,2.768-1.488,2.768-1.488-.008-1.29-2.053-1.663-3.036-1.69a6.554,6.554,0,0,1-3.837-1.2,4.142,4.142,0,0,1-1.46-3.536V223.457a1.223,1.223,0,0,1,1.32-1.326,2.943,2.943,0,0,1,2.389,1.59Z" transform="translate(-176.5 -166.516)" fill="#105caa"/></g></g><g transform="translate(171.237 64)"><path d="M179.218,263.23V253.7h1.017v8.62h4.872v.91Z" transform="translate(-179.218 -253.62)" fill="#fe0607"/><path d="M185.658,263.23V253.7h5.916v.911h-4.9v3.359h4.176v.91h-4.176v3.439h4.9v.91Z" transform="translate(-178.21 -253.62)" fill="#fe0607"/><path d="M198.512,263.23l-.763-2.155h-4.162l-.763,2.155H191.74l3.507-9.53h.857l3.493,9.53Zm-2.824-8.07-1.794,5.032h3.561Z" transform="translate(-177.258 -253.62)" fill="#fe0607"/><path d="M205.551,262.226a3.155,3.155,0,0,1-2.5,1h-3.266V253.7h3.266a3.155,3.155,0,0,1,2.5,1.005c.843.909.843,2.3.843,3.761S206.394,261.316,205.551,262.226Zm-.8-6.919a2.383,2.383,0,0,0-1.874-.7H200.8v7.708h2.075a2.379,2.379,0,0,0,1.874-.7c.616-.657.629-1.834.629-3.158S205.363,255.962,204.747,255.306Z" transform="translate(-175.999 -253.62)" fill="#fe0607"/><path d="M207.217,263.23V253.7h1.018v9.53Z" transform="translate(-174.836 -253.62)" fill="#fe0607"/><path d="M216.113,263.23l-5.059-7.642v7.642h-1.018V253.7H211l5.06,7.616V253.7h1.017v9.53Z" transform="translate(-174.394 -253.62)" fill="#fe0607"/><path d="M223.725,262.224a3.359,3.359,0,0,1-2.543,1.1,3.265,3.265,0,0,1-2.382-.938c-.9-.9-.951-1.726-.951-3.907s.054-3.013.951-3.909a3.413,3.413,0,0,1,5.715,1.914H223.5a2.279,2.279,0,0,0-2.315-1.941,2.216,2.216,0,0,0-1.646.67c-.6.615-.67,1.312-.67,3.266s.066,2.65.67,3.265a2.216,2.216,0,0,0,1.646.67,2.327,2.327,0,0,0,1.806-.816,2.54,2.54,0,0,0,.535-1.727v-.737h-2.342v-.87h3.358v1.513A3.234,3.234,0,0,1,223.725,262.224Z" transform="translate(-173.172 -253.631)" fill="#fe0607"/><path d="M230.92,254.611v8.618H229.9v-8.618h-2.757V253.7h6.531v.911Z" transform="translate(-171.717 -253.62)" fill="#fe0607"/><path d="M239.681,263.23v-4.35h-4.524v4.35H234.14V253.7h1.017v4.27h4.524V253.7H240.7v9.53Z" transform="translate(-170.622 -253.62)" fill="#fe0607"/><path d="M241.773,263.23V253.7h5.916v.911h-4.9v3.359h4.176v.91H242.79v3.439h4.9v.91Z" transform="translate(-169.427 -253.62)" fill="#fe0607"/><path d="M252.039,254.611v3.507h4.176v.909h-4.176v4.2h-1.017V253.7h5.916v.911Z" transform="translate(-167.98 -253.62)" fill="#fe0607"/><path d="M257.513,263.23V253.7h1.018v9.53Z" transform="translate(-166.964 -253.62)" fill="#fe0607"/><path d="M265.982,262.224a3.357,3.357,0,0,1-2.543,1.1,3.26,3.26,0,0,1-2.381-.938c-.9-.9-.951-1.726-.951-3.907s.053-3.013.951-3.909a3.412,3.412,0,0,1,5.714,1.914h-1.017a2.28,2.28,0,0,0-2.316-1.941,2.217,2.217,0,0,0-1.646.67c-.6.615-.67,1.312-.67,3.266s.067,2.65.67,3.265a2.218,2.218,0,0,0,1.646.67,2.327,2.327,0,0,0,1.808-.816,2.54,2.54,0,0,0,.536-1.727v-.737h-2.343v-.87h3.36v1.513A3.23,3.23,0,0,1,265.982,262.224Z" transform="translate(-166.558 -253.631)" fill="#fe0607"/><path d="M273.116,263.23v-4.35h-4.524v4.35h-1.017V253.7h1.017v4.27h4.524V253.7h1.017v9.53Z" transform="translate(-165.389 -253.62)" fill="#fe0607"/><path d="M278.374,254.611v8.618h-1.017v-8.618H274.6V253.7h6.532v.911Z" transform="translate(-164.289 -253.62)" fill="#fe0607"/><path d="M200.768,276.23l-.762-2.155h-4.162l-.763,2.155H194L197.5,266.7h.856l3.493,9.529Zm-2.824-8.07-1.793,5.032h3.56Z" transform="translate(-193.905 -251.585)" fill="#fe0607"/><path d="M207.382,275.225a3.357,3.357,0,0,1-2.543,1.1,3.268,3.268,0,0,1-2.381-.937c-.9-.9-.951-1.727-.951-3.908s.054-3.012.951-3.909a3.412,3.412,0,0,1,5.714,1.914h-1.017a2.278,2.278,0,0,0-2.317-1.939,2.212,2.212,0,0,0-1.645.668c-.6.615-.67,1.311-.67,3.266s.066,2.65.67,3.265a2.213,2.213,0,0,0,1.645.67,2.324,2.324,0,0,0,1.808-.817,2.54,2.54,0,0,0,.535-1.727v-.737h-2.343v-.87h3.36v1.513A3.228,3.228,0,0,1,207.382,275.225Z" transform="translate(-192.729 -251.596)" fill="#fe0607"/><path d="M214.783,276.23l-.762-2.155h-4.162l-.764,2.155H208.01l3.507-9.529h.857l3.493,9.529Zm-2.824-8.07-1.794,5.032h3.561Z" transform="translate(-191.712 -251.585)" fill="#fe0607"/><path d="M216.053,276.23V266.7h1.018v9.529Z" transform="translate(-190.453 -251.585)" fill="#fe0607"/><path d="M224.948,276.23l-5.059-7.641v7.641h-1.017V266.7h.963l5.06,7.616V266.7h1.017v9.529Z" transform="translate(-190.011 -251.585)" fill="#fe0607"/><path d="M229.642,276.322a4.125,4.125,0,0,1-3.252-1.258l.682-.682a3.261,3.261,0,0,0,2.6,1.03c1.405,0,2.262-.643,2.262-1.767a1.493,1.493,0,0,0-.468-1.19,2.046,2.046,0,0,0-1.246-.468l-1.11-.161a3.353,3.353,0,0,1-1.739-.723,2.272,2.272,0,0,1-.737-1.794c0-1.62,1.163-2.677,3.051-2.677a3.881,3.881,0,0,1,2.838,1.044l-.656.656a2.96,2.96,0,0,0-2.222-.829c-1.285,0-2.02.709-2.02,1.78a1.405,1.405,0,0,0,.427,1.11,2.58,2.58,0,0,0,1.246.5l1.11.173a2.871,2.871,0,0,1,1.727.682,2.4,2.4,0,0,1,.8,1.874C232.934,275.292,231.636,276.322,229.642,276.322Z" transform="translate(-188.835 -251.596)" fill="#fe0607"/><path d="M236.721,267.612v8.618H235.7v-8.618h-2.758v-.91h6.532v.91Z" transform="translate(-187.809 -251.585)" fill="#fe0607"/><path d="M243.455,267.612v3.507h4.176v.91h-4.176v4.2h-1.018V266.7h5.916v.91Z" transform="translate(-186.323 -251.585)" fill="#fe0607"/><path d="M248.93,276.23V266.7h1.017v9.529Z" transform="translate(-185.307 -251.585)" fill="#fe0607"/><path d="M257.223,276.23,255.054,272h-2.288v4.229h-1.018V266.7H255.4a2.577,2.577,0,0,1,2.823,2.65,2.473,2.473,0,0,1-2.075,2.557l2.262,4.322Zm-1.913-8.618h-2.543V271.1h2.543a1.752,1.752,0,1,0,0-3.493Z" transform="translate(-184.866 -251.585)" fill="#fe0607"/><path d="M259.011,276.23V266.7h5.916v.91h-4.9v3.359H264.2v.91h-4.176v3.441h4.9v.909Z" transform="translate(-183.729 -251.585)" fill="#fe0607"/></g></g></svg>